<svg xmlns="http://www.w3.org/2000/svg" viewBox="8 3 224 58" role="img" aria-label="/ATE — Angular Tiptap Editor"><title>/ATE — Angular Tiptap Editor</title><path d="M46.70 21.49 L30.78 57.02 A2.5 2.5 0 0 1 28.5 58.5 L14 58.5 A2.5 2.5 0 0 1 11.72 54.98 L33.22 6.98 A2.5 2.5 0 0 1 35.5 5.5 L36.757 5.5 A4.5 4.5 0 0 0 42.487 11.247 A10 10 0 0 0 44.285 13.411 A4.5 4.5 0 0 0 46.70 21.49 Z" fill="#2563eb"/><g transform="translate(52 0)"><g transform="translate(0 0)"><rect x="7" y="9" width="50" height="48" rx="13" fill="#153ca9"/><rect x="11" y="10" width="42" height="38" rx="10" fill="#2563eb"/><path d="M24 38.5 L32 19.5 L40 38.5 M27.5 32 H36.5" fill="none" stroke="#fff" stroke-width="5" stroke-linecap="round" stroke-linejoin="round"/></g><g transform="translate(58 0)"><rect x="7" y="9" width="50" height="48" rx="13" fill="#153ca9"/><rect x="11" y="10" width="42" height="38" rx="10" fill="#2563eb"/><path d="M23 20 H41 M32 20 V38.5" fill="none" stroke="#fff" stroke-width="5" stroke-linecap="round" stroke-linejoin="round"/></g><g transform="translate(116 0)"><rect x="7" y="9" width="50" height="48" rx="13" fill="#153ca9"/><rect x="11" y="10" width="42" height="38" rx="10" fill="#2563eb"/><path d="M39.5 20 H25 V38.5 H39.5 M25 29.2 H36" fill="none" stroke="#fff" stroke-width="5" stroke-linecap="round" stroke-linejoin="round"/></g></g></svg>
